<svg xmlns="http://www.w3.org/2000/svg" xmlns:xlink="http://www.w3.org/1999/xlink" width="482.65096" height="298.61869" viewBox="0 0 482.65096 298.61869">
  <defs>
    <style>
      .cls-1 {
        fill: none;
      }

      .cls-2 {
        fill: url(#Dégradé_sans_nom_40);
      }

      .cls-3 {
        fill: url(#Dégradé_sans_nom_40-2);
      }

      .cls-4 {
        clip-path: url(#clip-path);
      }

      .cls-5 {
        fill: url(#Dégradé_sans_nom_40-3);
      }

      .cls-6 {
        fill: url(#Dégradé_sans_nom_40-4);
      }

      .cls-7 {
        clip-path: url(#clip-path-2);
      }

      .cls-8 {
        fill: url(#Dégradé_sans_nom_40-6);
      }

      .cls-9 {
        clip-path: url(#clip-path-3);
      }

      .cls-10 {
        fill: url(#Dégradé_sans_nom_40-8);
      }

      .cls-11 {
        fill: url(#Dégradé_sans_nom_42);
      }

      .cls-12 {
        fill: url(#Dégradé_sans_nom_42-2);
      }

      .cls-13 {
        fill: url(#Dégradé_sans_nom_42-3);
      }

      .cls-14 {
        fill: url(#Dégradé_sans_nom_42-4);
      }

      .cls-15 {
        fill: url(#Dégradé_sans_nom_42-5);
      }

      .cls-16 {
        fill: url(#Dégradé_sans_nom_42-6);
      }

      .cls-17 {
        fill: url(#Dégradé_sans_nom_42-7);
      }

      .cls-18 {
        fill: url(#Dégradé_sans_nom_42-8);
      }

      .cls-19 {
        fill: url(#Dégradé_sans_nom_3);
      }

      .cls-20 {
        fill: url(#Dégradé_sans_nom_3-2);
      }

      .cls-21 {
        fill: url(#Dégradé_sans_nom_3-3);
      }

      .cls-22 {
        fill: url(#Dégradé_sans_nom_3-4);
      }

      .cls-23 {
        fill: url(#Dégradé_sans_nom_3-5);
      }

      .cls-24 {
        fill: url(#Dégradé_sans_nom_3-6);
      }

      .cls-25 {
        fill: url(#Dégradé_sans_nom_3-7);
      }

      .cls-26 {
        fill: url(#Dégradé_sans_nom_3-8);
      }

      .cls-27 {
        fill: url(#Dégradé_sans_nom_3-9);
      }

      .cls-28 {
        fill: url(#Dégradé_sans_nom_3-10);
      }

      .cls-29 {
        fill: url(#Dégradé_sans_nom_3-11);
      }

      .cls-30 {
        fill: url(#Dégradé_sans_nom_3-12);
      }

      .cls-31 {
        fill: url(#Dégradé_sans_nom_3-13);
      }

      .cls-32 {
        fill: url(#Dégradé_sans_nom_3-14);
      }

      .cls-33 {
        fill: url(#Dégradé_sans_nom_3-15);
      }

      .cls-34 {
        fill: url(#Dégradé_sans_nom_3-16);
      }

      .cls-35 {
        fill: url(#Dégradé_sans_nom_3-17);
      }

      .cls-36 {
        fill: url(#Dégradé_sans_nom_3-18);
      }

      .cls-37 {
        fill: url(#Dégradé_sans_nom_3-19);
      }

      .cls-38 {
        fill: url(#Dégradé_sans_nom_3-20);
      }

      .cls-39 {
        fill: url(#Dégradé_sans_nom_39);
      }

      .cls-40 {
        fill: url(#Dégradé_sans_nom_39-2);
      }

      .cls-41 {
        fill: url(#Dégradé_sans_nom_39-3);
      }

      .cls-42 {
        fill: url(#Dégradé_sans_nom_39-4);
      }

      .cls-43 {
        fill: url(#Dégradé_sans_nom_39-5);
      }
    </style>
    <linearGradient id="Dégradé_sans_nom_40" data-name="Dégradé sans nom 40" x1="343.4311" y1="110.53253" x2="144.06855" y2="170.27417" gradientUnits="userSpaceOnUse">
      <stop offset="0" stop-color="#f9001e"/>
      <stop offset="0.9195" stop-color="#075edd"/>
      <stop offset="1" stop-color="#075edd"/>
    </linearGradient>
    <linearGradient id="Dégradé_sans_nom_40-2" x1="343.4309" y1="110.53187" x2="144.06835" y2="170.27351" xlink:href="#Dégradé_sans_nom_40"/>
    <clipPath id="clip-path">
      <rect class="cls-1" x="109.80724" y="16.63005" width="263.03648" height="165.57859"/>
    </clipPath>
    <linearGradient id="Dégradé_sans_nom_40-3" x1="324.95612" y1="48.88004" x2="125.59356" y2="108.62168" xlink:href="#Dégradé_sans_nom_40"/>
    <linearGradient id="Dégradé_sans_nom_40-4" x1="332.34996" y1="73.55387" x2="132.9874" y2="133.29552" gradientTransform="translate(136.85623 -90.82307) rotate(45)" xlink:href="#Dégradé_sans_nom_40"/>
    <clipPath id="clip-path-2">
      <path class="cls-2" d="M295.3331,71.63523a88.20481,88.20481,0,1,0,33.30349,58.72411A87.92733,87.92733,0,0,0,295.3331,71.63523m21.111,128.30934a95.53644,95.53644,0,1,1,19.47311-70.48624A95.24461,95.24461,0,0,1,316.44406,199.94457Z"/>
    </clipPath>
    <linearGradient id="Dégradé_sans_nom_40-6" x1="343.43069" y1="110.53114" x2="144.06813" y2="170.27278" gradientTransform="translate(347.62583 -117.09839) rotate(82.05766)" xlink:href="#Dégradé_sans_nom_40"/>
    <clipPath id="clip-path-3">
      <path class="cls-3" d="M201.78836,105.96645c.09943-6.61555.45219-13.00875,1.03416-19.122-8.10064,1.90418-15.80661,4.10717-23.02719,6.558-.61577,7.59863-.875,15.61135-.74359,23.93338,5.71246-2.03145,11.7451-3.9098,18.05018-5.60528a5.97322,5.97322,0,0,1,4.68644-5.76409M181.256,148.6063c4.08757,33.01532,13.16782,62.20825,24.54294,82.71877,11.16553,20.12912,24.43867,31.79346,37.16936,30.21837a20.64376,20.64376,0,0,0,9.90133-4.16969C244.35489,252.28452,236.15,242.625,228.905,229.56106c-11.55077-20.82486-20.76259-50.395-24.89463-83.77139-1.19213-9.63088-1.89559-19.05533-2.14711-28.14581a5.99133,5.99133,0,0,1-4.07525-3.06371c-6.54157,1.76-12.78306,3.71763-18.67081,5.83962C179.36021,129.51312,180.06145,138.95351,181.256,148.6063Zm26.46723-90.13123c3.84263-14.4347,9.44391-25.8053,16.45822-32.81732a20.64459,20.64459,0,0,0-10.62051-1.62669c-12.72828,1.57682-22.75532,16.12411-28.67614,38.36791A173.45388,173.45388,0,0,0,180.077,90.21913c7.24817-2.41578,14.96857-4.58564,23.062-6.45833A172.45422,172.45422,0,0,1,207.72322,58.47507Zm.60854,50.49572c8.98447-2.007,18.417-3.65081,28.1759-4.859,33.37649-4.132,64.29972-2.41042,87.31322,3.71262,14.43523,3.83991,25.80687,9.44273,32.81745,16.45825a20.6746,20.6746,0,0,0,1.62795-10.62034c-1.57784-12.73109-16.125-22.7581-38.37053-28.6765-22.666-6.03129-53.19079-7.71619-86.20591-3.63-9.65436,1.19572-18.98071,2.81768-27.8588,4.799-.63275,6.34181-1.0113,12.997-1.11312,19.90192A6.00391,6.00391,0,0,1,208.33176,108.97079Zm-57.36087-3.07064c-20.13157,11.16394-31.79308,24.43593-30.218,37.16663a20.64376,20.64376,0,0,0,4.16933,9.90393c5.089-8.51336,14.74873-16.71949,27.81286-23.96583a172.364,172.364,0,0,1,23.40282-10.61c-.15756-8.3079.06388-16.32323.63924-23.94247A173.29243,173.29243,0,0,0,150.97089,105.90015Zm128.186-49.588q-1.35374-2.70426-2.76071-5.24266c-11.16553-20.12912-24.43608-31.79183-37.16679-30.21675a20.65871,20.65871,0,0,0-9.90375,4.1681c8.17709,4.88762,16.06663,13.99112,23.09829,26.27348q-1.79241-.20133-3.603-.36987c-6.7808-11.40071-14.25337-19.70653-21.85873-23.91568-6.95372,6.50034-12.55349,17.7235-16.40912,32.21326A167.92483,167.92483,0,0,0,206.1627,83.0788c8.68056-1.90592,17.77153-3.47134,27.1666-4.634,33.37655-4.13341,64.29992-2.4118,87.31343,3.71125,23.434,6.23592,38.79763,17.10962,40.53478,31.14567a23.882,23.882,0,0,1-2.40121,13.32743,23.8871,23.8871,0,0,1,5.57974,12.33839c1.737,14.03742-10.51114,28.329-31.715,40.091q-5.26783,2.92039-11.25331,5.62691,1.18932-2.14629,2.255-4.27873,3.96384-1.90563,7.5813-3.9109c20.13155-11.16392,31.79582-24.43567,30.218-37.16676a20.6277,20.6277,0,0,0-4.16677-9.90216c-4.65445,7.787-13.136,15.315-24.54372,22.088q.21691-1.81674.33171-3.62053c10.53039-6.504,18.22671-13.60784,22.22307-20.83371-6.49928-6.95231-17.72231-12.55206-32.21239-16.40635-22.666-6.03128-53.1932-7.71792-86.20561-3.63121-9.64339,1.19446-18.95862,2.81389-27.82817,4.79234a5.9708,5.9708,0,0,1-4.24909,5.69789c.2522,9.00919.9499,18.35845,2.13337,27.91486,4.08759,33.01518,13.16784,62.20812,24.54294,82.71863,7.27331,13.11384,15.4413,22.63022,23.768,27.24063,6.09077-5.69283,11.14305-15.01189,14.89277-26.97531q1.72517-.5681,3.42146-1.2024c-3.79035,12.87615-9.06074,23.05878-15.536,29.52713a20.64725,20.64725,0,0,0,10.62049,1.628c12.731-1.57771,22.758-16.125,28.67636-38.37055.65424-2.45529,1.25706-5.01007,1.80626-7.64518q1.82223-1.49736,3.59241-3.10748c-.74187,4.01717-1.60022,7.85827-2.56885,11.49963-6.23591,23.434-17.10827,38.798-31.14567,40.53478a23.88156,23.88156,0,0,1-13.3273-2.40119,23.868,23.868,0,0,1-12.33853,5.57986c-14.03778,1.73944-28.3289-10.51126-40.08962-31.71492-11.55038-20.82761-20.76238-50.39655-24.89444-83.77277-1.16287-9.39384-1.86262-18.59281-2.13227-27.476a168.02085,168.02085,0,0,0-22.06312,10.07622c-13.11383,7.2733-22.63264,15.43955-27.24081,23.76938,5.64871,6.03853,14.85863,11.05666,26.67713,14.797q.5959,1.729,1.29231,3.45572c-12.77609-3.78858-22.88331-9.03626-29.31869-15.47564a20.64676,20.64676,0,0,0-1.62793,10.62034c1.57491,12.73194,16.12481,22.75934,38.3681,28.67478q4.03157,1.07452,8.37961,1.96013,1.4663,1.78134,3.03859,3.56108c-4.25739-.76725-8.32291-1.66771-12.16554-2.68877-23.43136-6.23557-38.795-17.11067-40.53214-31.14545a23.90284,23.90284,0,0,1,2.39857-13.32766,23.89167,23.89167,0,0,1-5.57707-12.33941c-1.737-14.036,10.50852-28.32928,31.71511-40.091a177.98752,177.98752,0,0,1,27.485-12.08183,177.92909,177.92909,0,0,1,5.016-29.6035c6.23312-23.433,17.10822-38.79656,31.14286-40.53377a23.88115,23.88115,0,0,1,13.32744,2.40121A23.894,23.894,0,0,1,238.869,17.94031c14.03466-1.73722,28.3263,10.51075,40.08961,31.71492q2.04582,3.6867,3.98484,7.73113Q281.06239,56.82933,279.15687,56.31216Z"/>
    </clipPath>
    <linearGradient id="Dégradé_sans_nom_40-8" x1="343.43138" y1="110.53344" x2="144.06882" y2="170.27508" gradientTransform="translate(347.62893 -117.09759) rotate(82.05766)" xlink:href="#Dégradé_sans_nom_40"/>
    <linearGradient id="Dégradé_sans_nom_42" data-name="Dégradé sans nom 42" x1="203.60495" y1="220.30866" x2="458.17621" y2="248.88634" gradientUnits="userSpaceOnUse">
      <stop offset="0" stop-color="#f9001e"/>
      <stop offset="1" stop-color="#97252e"/>
    </linearGradient>
    <linearGradient id="Dégradé_sans_nom_42-2" x1="204.11011" y1="215.80871" x2="458.68136" y2="244.38638" xlink:href="#Dégradé_sans_nom_42"/>
    <linearGradient id="Dégradé_sans_nom_42-3" x1="204.57105" y1="211.70261" x2="459.14231" y2="240.28029" xlink:href="#Dégradé_sans_nom_42"/>
    <linearGradient id="Dégradé_sans_nom_42-4" x1="205.15867" y1="206.46807" x2="459.72992" y2="235.04575" xlink:href="#Dégradé_sans_nom_42"/>
    <linearGradient id="Dégradé_sans_nom_42-5" x1="205.67441" y1="201.87384" x2="460.24566" y2="230.45152" xlink:href="#Dégradé_sans_nom_42"/>
    <linearGradient id="Dégradé_sans_nom_42-6" x1="206.11069" y1="197.98745" x2="460.68194" y2="226.56513" xlink:href="#Dégradé_sans_nom_42"/>
    <linearGradient id="Dégradé_sans_nom_42-7" x1="206.62373" y1="193.41721" x2="461.19499" y2="221.99489" xlink:href="#Dégradé_sans_nom_42"/>
    <linearGradient id="Dégradé_sans_nom_42-8" x1="205.04844" y1="207.44999" x2="459.6197" y2="236.02767" xlink:href="#Dégradé_sans_nom_42"/>
    <linearGradient id="Dégradé_sans_nom_3" data-name="Dégradé sans nom 3" x1="68.51211" y1="272.06506" x2="384.00167" y2="250.58492" gradientUnits="userSpaceOnUse">
      <stop offset="0" stop-color="#075edd"/>
      <stop offset="1" stop-color="#0e4c96"/>
    </linearGradient>
    <linearGradient id="Dégradé_sans_nom_3-2" x1="68.82607" y1="276.6763" x2="384.31563" y2="255.19616" xlink:href="#Dégradé_sans_nom_3"/>
    <linearGradient id="Dégradé_sans_nom_3-3" x1="68.6693" y1="274.37387" x2="384.15887" y2="252.89373" xlink:href="#Dégradé_sans_nom_3"/>
    <linearGradient id="Dégradé_sans_nom_3-4" x1="68.84165" y1="276.90521" x2="384.33121" y2="255.42507" xlink:href="#Dégradé_sans_nom_3"/>
    <linearGradient id="Dégradé_sans_nom_3-5" x1="68.90097" y1="277.7765" x2="384.39054" y2="256.29636" xlink:href="#Dégradé_sans_nom_3"/>
    <linearGradient id="Dégradé_sans_nom_3-6" x1="68.90746" y1="277.87181" x2="384.39703" y2="256.39167" xlink:href="#Dégradé_sans_nom_3"/>
    <linearGradient id="Dégradé_sans_nom_3-7" x1="69.0346" y1="279.73919" x2="384.52417" y2="258.25905" xlink:href="#Dégradé_sans_nom_3"/>
    <linearGradient id="Dégradé_sans_nom_3-8" x1="69.11679" y1="280.94631" x2="384.60635" y2="259.46617" xlink:href="#Dégradé_sans_nom_3"/>
    <linearGradient id="Dégradé_sans_nom_3-9" x1="69.17456" y1="281.79487" x2="384.66413" y2="260.31473" xlink:href="#Dégradé_sans_nom_3"/>
    <linearGradient id="Dégradé_sans_nom_3-10" x1="69.18939" y1="282.01259" x2="384.67895" y2="260.53245" xlink:href="#Dégradé_sans_nom_3"/>
    <linearGradient id="Dégradé_sans_nom_3-11" x1="69.36291" y1="284.56123" x2="384.85248" y2="263.08108" xlink:href="#Dégradé_sans_nom_3"/>
    <linearGradient id="Dégradé_sans_nom_3-12" x1="69.48962" y1="286.4223" x2="384.97919" y2="264.94216" xlink:href="#Dégradé_sans_nom_3"/>
    <linearGradient id="Dégradé_sans_nom_3-13" x1="69.56525" y1="287.53302" x2="385.05481" y2="266.05288" xlink:href="#Dégradé_sans_nom_3"/>
    <linearGradient id="Dégradé_sans_nom_3-14" x1="69.6442" y1="288.69258" x2="385.13376" y2="267.21243" xlink:href="#Dégradé_sans_nom_3"/>
    <linearGradient id="Dégradé_sans_nom_3-15" x1="69.58627" y1="287.84184" x2="385.07584" y2="266.3617" xlink:href="#Dégradé_sans_nom_3"/>
    <linearGradient id="Dégradé_sans_nom_3-16" x1="69.65516" y1="288.85364" x2="385.14472" y2="267.3735" xlink:href="#Dégradé_sans_nom_3"/>
    <linearGradient id="Dégradé_sans_nom_3-17" x1="69.82208" y1="291.30528" x2="385.31165" y2="269.82514" xlink:href="#Dégradé_sans_nom_3"/>
    <linearGradient id="Dégradé_sans_nom_3-18" x1="69.91216" y1="292.62836" x2="385.40173" y2="271.14822" xlink:href="#Dégradé_sans_nom_3"/>
    <linearGradient id="Dégradé_sans_nom_3-19" x1="69.98783" y1="293.73971" x2="385.47739" y2="272.25957" xlink:href="#Dégradé_sans_nom_3"/>
    <linearGradient id="Dégradé_sans_nom_3-20" x1="70.05876" y1="294.78149" x2="385.54832" y2="273.30135" xlink:href="#Dégradé_sans_nom_3"/>
    <linearGradient id="Dégradé_sans_nom_39" data-name="Dégradé sans nom 39" x1="173.06595" y1="166.79686" x2="325.77632" y2="182.40352" gradientUnits="userSpaceOnUse">
      <stop offset="0" stop-color="#075edd"/>
      <stop offset="0.0805" stop-color="#075edd"/>
      <stop offset="1" stop-color="#f9001e"/>
    </linearGradient>
    <linearGradient id="Dégradé_sans_nom_39-2" x1="173.74228" y1="160.17896" x2="326.45265" y2="175.78563" xlink:href="#Dégradé_sans_nom_39"/>
    <linearGradient id="Dégradé_sans_nom_39-3" x1="173.36687" y1="163.85234" x2="326.07724" y2="179.45901" xlink:href="#Dégradé_sans_nom_39"/>
    <linearGradient id="Dégradé_sans_nom_39-4" x1="173.61659" y1="161.40881" x2="326.32697" y2="177.01548" xlink:href="#Dégradé_sans_nom_39"/>
    <linearGradient id="Dégradé_sans_nom_39-5" x1="174.41288" y1="153.6172" x2="327.12325" y2="169.22387" xlink:href="#Dégradé_sans_nom_39"/>
  </defs>
  <title>Logo-2b</title>
  <g id="borrow_money" data-name="borrow money">
    <g>
      <g class="cls-4">
        <g>
          <circle class="cls-5" cx="178.39346" cy="92.79949" r="3.85971"/>
          <circle class="cls-6" cx="178.06126" cy="119.78855" r="4.6428" transform="translate(-32.55036 160.99358) rotate(-45)"/>
        </g>
        <g>
          <g>
            <path class="cls-2" d="M295.3331,71.63523a88.20481,88.20481,0,1,0,33.30349,58.72411A87.92733,87.92733,0,0,0,295.3331,71.63523m21.111,128.30934a95.53644,95.53644,0,1,1,19.47311-70.48624A95.24461,95.24461,0,0,1,316.44406,199.94457Z"/>
            <g class="cls-7">
              <rect class="cls-8" x="141.9844" y="42.08259" width="198.22648" height="198.22802" transform="matrix(0.13818, -0.99041, 0.99041, 0.13818, 67.94145, 360.47151)"/>
            </g>
          </g>
          <g>
            <path class="cls-3" d="M201.78836,105.96645c.09943-6.61555.45219-13.00875,1.03416-19.122-8.10064,1.90418-15.80661,4.10717-23.02719,6.558-.61577,7.59863-.875,15.61135-.74359,23.93338,5.71246-2.03145,11.7451-3.9098,18.05018-5.60528a5.97322,5.97322,0,0,1,4.68644-5.76409M181.256,148.6063c4.08757,33.01532,13.16782,62.20825,24.54294,82.71877,11.16553,20.12912,24.43867,31.79346,37.16936,30.21837a20.64376,20.64376,0,0,0,9.90133-4.16969C244.35489,252.28452,236.15,242.625,228.905,229.56106c-11.55077-20.82486-20.76259-50.395-24.89463-83.77139-1.19213-9.63088-1.89559-19.05533-2.14711-28.14581a5.99133,5.99133,0,0,1-4.07525-3.06371c-6.54157,1.76-12.78306,3.71763-18.67081,5.83962C179.36021,129.51312,180.06145,138.95351,181.256,148.6063Zm26.46723-90.13123c3.84263-14.4347,9.44391-25.8053,16.45822-32.81732a20.64459,20.64459,0,0,0-10.62051-1.62669c-12.72828,1.57682-22.75532,16.12411-28.67614,38.36791A173.45388,173.45388,0,0,0,180.077,90.21913c7.24817-2.41578,14.96857-4.58564,23.062-6.45833A172.45422,172.45422,0,0,1,207.72322,58.47507Zm.60854,50.49572c8.98447-2.007,18.417-3.65081,28.1759-4.859,33.37649-4.132,64.29972-2.41042,87.31322,3.71262,14.43523,3.83991,25.80687,9.44273,32.81745,16.45825a20.6746,20.6746,0,0,0,1.62795-10.62034c-1.57784-12.73109-16.125-22.7581-38.37053-28.6765-22.666-6.03129-53.19079-7.71619-86.20591-3.63-9.65436,1.19572-18.98071,2.81768-27.8588,4.799-.63275,6.34181-1.0113,12.997-1.11312,19.90192A6.00391,6.00391,0,0,1,208.33176,108.97079Zm-57.36087-3.07064c-20.13157,11.16394-31.79308,24.43593-30.218,37.16663a20.64376,20.64376,0,0,0,4.16933,9.90393c5.089-8.51336,14.74873-16.71949,27.81286-23.96583a172.364,172.364,0,0,1,23.40282-10.61c-.15756-8.3079.06388-16.32323.63924-23.94247A173.29243,173.29243,0,0,0,150.97089,105.90015Zm128.186-49.588q-1.35374-2.70426-2.76071-5.24266c-11.16553-20.12912-24.43608-31.79183-37.16679-30.21675a20.65871,20.65871,0,0,0-9.90375,4.1681c8.17709,4.88762,16.06663,13.99112,23.09829,26.27348q-1.79241-.20133-3.603-.36987c-6.7808-11.40071-14.25337-19.70653-21.85873-23.91568-6.95372,6.50034-12.55349,17.7235-16.40912,32.21326A167.92483,167.92483,0,0,0,206.1627,83.0788c8.68056-1.90592,17.77153-3.47134,27.1666-4.634,33.37655-4.13341,64.29992-2.4118,87.31343,3.71125,23.434,6.23592,38.79763,17.10962,40.53478,31.14567a23.882,23.882,0,0,1-2.40121,13.32743,23.8871,23.8871,0,0,1,5.57974,12.33839c1.737,14.03742-10.51114,28.329-31.715,40.091q-5.26783,2.92039-11.25331,5.62691,1.18932-2.14629,2.255-4.27873,3.96384-1.90563,7.5813-3.9109c20.13155-11.16392,31.79582-24.43567,30.218-37.16676a20.6277,20.6277,0,0,0-4.16677-9.90216c-4.65445,7.787-13.136,15.315-24.54372,22.088q.21691-1.81674.33171-3.62053c10.53039-6.504,18.22671-13.60784,22.22307-20.83371-6.49928-6.95231-17.72231-12.55206-32.21239-16.40635-22.666-6.03128-53.1932-7.71792-86.20561-3.63121-9.64339,1.19446-18.95862,2.81389-27.82817,4.79234a5.9708,5.9708,0,0,1-4.24909,5.69789c.2522,9.00919.9499,18.35845,2.13337,27.91486,4.08759,33.01518,13.16784,62.20812,24.54294,82.71863,7.27331,13.11384,15.4413,22.63022,23.768,27.24063,6.09077-5.69283,11.14305-15.01189,14.89277-26.97531q1.72517-.5681,3.42146-1.2024c-3.79035,12.87615-9.06074,23.05878-15.536,29.52713a20.64725,20.64725,0,0,0,10.62049,1.628c12.731-1.57771,22.758-16.125,28.67636-38.37055.65424-2.45529,1.25706-5.01007,1.80626-7.64518q1.82223-1.49736,3.59241-3.10748c-.74187,4.01717-1.60022,7.85827-2.56885,11.49963-6.23591,23.434-17.10827,38.798-31.14567,40.53478a23.88156,23.88156,0,0,1-13.3273-2.40119,23.868,23.868,0,0,1-12.33853,5.57986c-14.03778,1.73944-28.3289-10.51126-40.08962-31.71492-11.55038-20.82761-20.76238-50.39655-24.89444-83.77277-1.16287-9.39384-1.86262-18.59281-2.13227-27.476a168.02085,168.02085,0,0,0-22.06312,10.07622c-13.11383,7.2733-22.63264,15.43955-27.24081,23.76938,5.64871,6.03853,14.85863,11.05666,26.67713,14.797q.5959,1.729,1.29231,3.45572c-12.77609-3.78858-22.88331-9.03626-29.31869-15.47564a20.64676,20.64676,0,0,0-1.62793,10.62034c1.57491,12.73194,16.12481,22.75934,38.3681,28.67478q4.03157,1.07452,8.37961,1.96013,1.4663,1.78134,3.03859,3.56108c-4.25739-.76725-8.32291-1.66771-12.16554-2.68877-23.43136-6.23557-38.795-17.11067-40.53214-31.14545a23.90284,23.90284,0,0,1,2.39857-13.32766,23.89167,23.89167,0,0,1-5.57707-12.33941c-1.737-14.036,10.50852-28.32928,31.71511-40.091a177.98752,177.98752,0,0,1,27.485-12.08183,177.92909,177.92909,0,0,1,5.016-29.6035c6.23312-23.433,17.10822-38.79656,31.14286-40.53377a23.88115,23.88115,0,0,1,13.32744,2.40121A23.894,23.894,0,0,1,238.869,17.94031c14.03466-1.73722,28.3263,10.51075,40.08961,31.71492q2.04582,3.6867,3.98484,7.73113Q281.06239,56.82933,279.15687,56.31216Z"/>
            <g class="cls-9">
              <rect class="cls-10" x="115.67089" y="15.77218" width="250.8557" height="250.8532" transform="translate(67.94023 360.47447) rotate(-82.05766)"/>
            </g>
          </g>
        </g>
      </g>
      <g>
        <g>
          <path d="M16.15842,201.7346h6.59131v14.84275H38.92107V201.7346h6.59051v37.49408H38.92107V222.946H22.74973v16.28266H16.15842Z"/>
          <path d="M65.29116,201.7346h6.47919L87.444,239.22868H80.57678l-3.93253-9.74781h-16.227l-3.93252,9.74781H49.56188Zm9.30415,22.26413-6.092-15.23077-6.092,15.23077Z"/>
          <path d="M90.16407,201.7346h6.092v31.457h19.49563v6.03713H90.16407Z"/>
          <path d="M121.24027,201.7346h6.92286v37.49408h-6.92286Z"/>
          <path d="M148.49125,201.7346h6.47918l15.67362,37.49408h-6.868l-3.93171-9.74781h-16.227l-3.93172,9.74781h-6.92285Zm9.30414,22.26413-6.092-15.23077-6.092,15.23077Z"/>
        </g>
        <path class="cls-11" d="M195.48956,212.46478v26.85215H189.387V201.75787h4.9373l21.4704,23.52289V201.75787h6.10335v38.11339H221.01Z"/>
        <path class="cls-12" d="M232.50236,223.00686H229.784v-5.54821h2.71834V201.75787h27.46223v5.49244H239.38145v10.20834h17.864v5.54821h-17.864v10.81843h20.58314v5.49164H232.50236Z"/>
        <path class="cls-13" d="M274.83953,207.30526H264.29746v-5.54739h27.40648v5.54739H281.16348v32.01167h-6.32395Z"/>
        <path class="cls-14" d="M294.15077,201.75787h6.49041l10.98489,27.24,11.48428-28.07232,11.42772,28.07232,10.98489-27.24h6.492l-14.81352,37.55906h-4.77085l-9.32027-23.468-9.37683,23.468h-4.77084Z"/>
        <path class="cls-15" d="M351.69176,220.45336a19.69515,19.69515,0,1,1,19.75083,19.75083A19.74658,19.74658,0,0,1,351.69176,220.45336Zm33.17609,0a13.481,13.481,0,1,0-13.48021,13.48182A13.56734,13.56734,0,0,0,384.86785,220.45336Z"/>
        <path class="cls-16" d="M398.3012,227.88759h-2.71835v-5.60315h2.71835V201.75787h16.42158c8.59947,0,13.37193,6.269,13.37193,13.03739,0,7.10131-4.77246,13.09233-13.37193,13.09233h-9.98612v11.42934H398.3012Zm16.09027-5.60315a7.40944,7.40944,0,0,0,7.43262-7.48918,7.32823,7.32823,0,0,0-7.43262-7.43424h-9.65481v14.92342Z"/>
        <path class="cls-17" d="M433.70432,201.75787h6.10254v15.53432l14.98-15.53432h7.932l-16.31007,17.25389,20.08375,20.30517H458.4474l-16.69956-15.97877-1.941,2.27553v13.70324h-6.10254Z"/>
        <polygon class="cls-18" points="428.844 239.317 416.048 223.394 410.642 227.738 419.948 239.317 428.844 239.317"/>
      </g>
      <g>
        <path class="cls-19" d="M77.9143,270.93581a7.165,7.165,0,1,1,7.18531,7.165A7.167,7.167,0,0,1,77.9143,270.93581Zm12.5184,0a5.35342,5.35342,0,1,0-5.35342,5.35316A5.38657,5.38657,0,0,0,90.4327,270.93581Z"/>
        <path class="cls-20" d="M99.20881,277.81576h-.97705v-1.62841h.97705v-9.07842h5.781a5.37983,5.37983,0,0,1,5.59755,5.39432,5.26056,5.26056,0,0,1-5.59755,5.31251h-4.05069v4.17288H99.20881Zm5.72-1.62841a3.73379,3.73379,0,1,0,0-7.45h-3.98972v7.45Z"/>
        <path class="cls-21" d="M116.59489,273.15461h-.95647v-1.60808h.95647a5.02488,5.02488,0,0,1,5.10927-4.90554c3.48062,0,5.94355,2.5648,5.109,6.51362H118.488a3.65089,3.65089,0,0,0,3.68436,3.23649c.87518,0,2.66642-.46846,3.13462-1.24176l1.42492,1.099a6.23414,6.23414,0,0,1-4.7836,1.7915A5.27236,5.27236,0,0,1,116.59489,273.15461Zm8.44738-1.60808a2.9668,2.9668,0,0,0-3.27714-3.27713,3.27226,3.27226,0,0,0-3.29745,3.27713Zm-3.01242-8.1217h1.87253l-1.79124,2.27976h-.977Z"/>
        <path class="cls-22" d="M133.37025,267.10893h1.68937V268.432c.56982-1.01769,2.07628-1.445,3.58249-1.32305v1.73c-1.81156-.24388-3.52152.73316-3.52152,2.40221v6.55427h-1.75034Z"/>
        <path class="cls-23" d="M143.6513,272.36048a5.547,5.547,0,1,1,11.09348,0v5.1296h-1.54712v-1.87279a4.67848,4.67848,0,0,1-3.98946,2.23912A5.53794,5.53794,0,0,1,143.6513,272.36048Zm9.44475,0a3.90838,3.90838,0,1,0-7.81634,0,3.90865,3.90865,0,0,0,7.81634,0Z"/>
        <path class="cls-24" d="M161.546,274.19262v-5.435h-.977v-1.64873h.977v-2.21879h1.77092v2.21879H165.902v1.64873h-2.58513v4.88522c0,2.54447,1.87279,2.5648,3.33836,2.46318v1.77067C164.45678,278.16176,161.546,277.57137,161.546,274.19262Z"/>
        <path class="cls-25" d="M172.39709,273.15461h-.95647v-1.60808h.95647a5.02489,5.02489,0,0,1,5.10928-4.90554c3.48062,0,5.94355,2.5648,5.109,6.51362h-8.32518a3.65089,3.65089,0,0,0,3.68436,3.23649c.87517,0,2.66641-.46846,3.13461-1.24176l1.42492,1.099a6.23412,6.23412,0,0,1-4.7836,1.7915A5.27237,5.27237,0,0,1,172.39709,273.15461Zm8.44738-1.60808a2.9668,2.9668,0,0,0-3.27713-3.27713,3.27227,3.27227,0,0,0-3.29746,3.27713Z"/>
        <path class="cls-26" d="M188.94839,273.03216v-5.92323h1.64873v5.41464c0,2.23912,1.13988,3.60281,3.27713,3.60281s3.27713-1.36369,3.27713-3.60281v-5.41464h1.64873v10.68651h-1.42466v-1.8728a3.65079,3.65079,0,0,1-3.5012,1.8728C190.86183,277.79544,188.94839,275.92264,188.94839,273.03216Z"/>
        <path class="cls-27" d="M205.52,267.10893h1.68963V268.432c.56981-1.01769,2.07628-1.445,3.58249-1.32305v1.73c-1.81157-.24388-3.52152.73316-3.52152,2.40221v6.55427H205.52Z"/>
        <path class="cls-28" d="M225.67463,272.422a5.14228,5.14228,0,0,1,5.29244-5.313h3.786v-3.56216h1.73028v3.56216h.977v1.62841h-.977v9.07842h-5.51626A5.25329,5.25329,0,0,1,225.67463,272.422Zm9.07842,3.78573v-7.47034h-3.70468a3.73552,3.73552,0,0,0,0,7.47034Z"/>
        <path class="cls-29" d="M243.549,273.15461h-.95647v-1.60808h.95647a5.02488,5.02488,0,0,1,5.10928-4.90554c3.48062,0,5.94355,2.5648,5.109,6.51362h-8.32519a3.65089,3.65089,0,0,0,3.68436,3.23649c.87518,0,2.66642-.46846,3.13462-1.24176l1.42492,1.099a6.23414,6.23414,0,0,1-4.7836,1.7915A5.27236,5.27236,0,0,1,243.549,273.15461Zm8.44738-1.60808a2.9668,2.9668,0,0,0-3.27713-3.27713,3.27227,3.27227,0,0,0-3.29746,3.27713Z"/>
        <path class="cls-30" d="M269.36313,272.422a5.63078,5.63078,0,0,1,5.59755-5.80128,5.47192,5.47192,0,0,1,5.14992,3.31778l-1.48589.83427a3.92858,3.92858,0,0,0-3.56216-2.44235,3.97067,3.97067,0,0,0-3.96915,4.09158,4.041,4.041,0,0,0,3.96915,4.09109,3.80857,3.80857,0,0,0,3.56216-2.40171l1.48589.81395a5.38236,5.38236,0,0,1-5.14992,3.31778A5.77714,5.77714,0,0,1,269.36313,272.422Z"/>
        <path class="cls-31" d="M285.69036,272.4626a5.55266,5.55266,0,0,1,5.51626-5.61838,5.39107,5.39107,0,0,1,5.49593,5.61838,5.50655,5.50655,0,1,1-11.01219,0Zm9.34313,0a3.78638,3.78638,0,0,0-3.82687-3.94882,3.94959,3.94959,0,0,0-3.86753,3.94882,3.84945,3.84945,0,0,0,3.86753,3.90817A3.80359,3.80359,0,0,0,295.03349,272.4626Z"/>
        <path class="cls-32" d="M303.21845,267.10893h1.42492v1.91344a3.6072,3.6072,0,0,1,3.58249-1.91344c3.19559,0,4.90554,1.64873,4.90554,4.62051v6.066h-1.64873v-5.57723c0-2.25944-1.14014-3.44022-3.318-3.44022-2.11693,0-3.29746,1.34337-3.29746,3.58249v5.435h-1.64873Z"/>
        <path class="cls-33" d="M320.74705,268.73734h-1.2824v-1.62841h1.2824c0-2.38138,1.34337-4.78359,5.84193-3.29745l-.346,1.40434c-2.70732-.87492-3.82688.30536-3.82688,1.89311h3.8472v1.62841h-3.80655v9.0581h-1.7097Z"/>
        <path class="cls-34" d="M334.52243,264.6869a1.04835,1.04835,0,0,1,2.0966,0,1.04835,1.04835,0,1,1-2.0966,0Zm.20349,2.422H336.395v10.68651h-1.66905Z"/>
        <path class="cls-35" d="M343.27644,272.36048a5.547,5.547,0,1,1,11.09348,0v5.1296H352.8228v-1.87279a4.67848,4.67848,0,0,1-3.98946,2.23912A5.53794,5.53794,0,0,1,343.27644,272.36048Zm9.44475,0a3.90838,3.90838,0,1,0-7.81634,0,3.90865,3.90865,0,0,0,7.81634,0Z"/>
        <path class="cls-36" d="M361.2933,267.10893h1.42492v1.91344a3.60721,3.60721,0,0,1,3.58249-1.91344c3.19559,0,4.90554,1.64873,4.90554,4.62051v6.066h-1.64873v-5.57723c0-2.25944-1.14014-3.44022-3.318-3.44022-2.11693,0-3.29746,1.34337-3.29746,3.58249v5.435H361.2933Z"/>
        <path class="cls-37" d="M377.33576,272.422a5.63078,5.63078,0,0,1,5.59754-5.80128,5.47193,5.47193,0,0,1,5.14993,3.31778l-1.48589.83427a3.92858,3.92858,0,0,0-3.56217-2.44235A3.97067,3.97067,0,0,0,379.066,272.422a4.041,4.041,0,0,0,3.96914,4.09109,3.80857,3.80857,0,0,0,3.56217-2.40171l1.48589.81395a5.38236,5.38236,0,0,1-5.14993,3.31778A5.77713,5.77713,0,0,1,377.33576,272.422Z"/>
        <path class="cls-38" d="M394.355,273.15461h-.95646v-1.60808h.95646a5.02489,5.02489,0,0,1,5.10928-4.90554c3.48062,0,5.94355,2.5648,5.109,6.51362h-8.32518a3.65089,3.65089,0,0,0,3.68436,3.23649c.87517,0,2.66641-.46846,3.13461-1.24176l1.42492,1.099a6.23412,6.23412,0,0,1-4.7836,1.7915A5.27237,5.27237,0,0,1,394.355,273.15461Zm8.44738-1.60808a2.9668,2.9668,0,0,0-3.27713-3.27713,3.27227,3.27227,0,0,0-3.29746,3.27713Z"/>
      </g>
      <g>
        <path class="cls-39" d="M233.40914,177.94119a2.1406,2.1406,0,0,1,1.2686-.538,1.40911,1.40911,0,0,1,1.09568.44243,1.46791,1.46791,0,0,1,.404,1.01883,2.05615,2.05615,0,0,1-.15422.76853,2.11186,2.11186,0,0,1-.69169.807,7.31531,7.31531,0,0,1-2.49878,1.32728,9.94835,9.94835,0,0,1-2.96041.44139,10.72491,10.72491,0,0,1-3.9024-.69168,9.04527,9.04527,0,0,1-3.0757-1.94108,8.84943,8.84943,0,0,1-2.01844-3.01806,10.28416,10.28416,0,0,1-.73011-3.96,10.17659,10.17659,0,0,1,.73011-3.92161,8.91607,8.91607,0,0,1,2.03765-3.03675,9.09539,9.09539,0,0,1,3.09492-1.96081,10.59582,10.59582,0,0,1,3.864-.69272,10.31516,10.31516,0,0,1,2.86383.404,6.84714,6.84714,0,0,1,2.48008,1.28782,2.48142,2.48142,0,0,1,.73011.82669,1.75633,1.75633,0,0,1,.19266.74984,1.48573,1.48573,0,0,1-.46164,1.15281,1.63927,1.63927,0,0,1-1.15333.42373,1.38173,1.38173,0,0,1-.59561-.135,4.7576,4.7576,0,0,1-.8267-.55771,6.02849,6.02849,0,0,0-1.34545-.76854,4.65106,4.65106,0,0,0-1.84553-.34584,5.64868,5.64868,0,0,0-2.51851.538,5.7646,5.7646,0,0,0-1.86422,1.44152,6.322,6.322,0,0,0-1.17253,2.09582,7.725,7.725,0,0,0-.404,2.49878,7.8957,7.8957,0,0,0,.38478,2.47905,6.23717,6.23717,0,0,0,1.13411,2.07608,5.47265,5.47265,0,0,0,1.86422,1.44256,6.31927,6.31927,0,0,0,4.49853.23056A5.67394,5.67394,0,0,0,233.40914,177.94119Z"/>
        <path class="cls-40" d="M240.40593,154.33572a2.36986,2.36986,0,0,1,.19213-1.01883,1.58832,1.58832,0,0,1,.48085-.61483,1.73067,1.73067,0,0,1,.59562-.28872,1.92325,1.92325,0,0,1,1.07647,0,1.73736,1.73736,0,0,1,.59613.28872,1.59225,1.59225,0,0,1,.48034.61483,2.36986,2.36986,0,0,1,.19213,1.01883v25.68155a2.3442,2.3442,0,0,1-.19213,1.03856,1.60738,1.60738,0,0,1-.48034.5951,1.71871,1.71871,0,0,1-.59613.28872,1.92325,1.92325,0,0,1-1.07647,0,1.71214,1.71214,0,0,1-.59562-.28872,1.6033,1.6033,0,0,1-.48085-.5951,2.3442,2.3442,0,0,1-.19213-1.03856Z"/>
        <path class="cls-41" d="M268.77839,172.55936a9.84489,9.84489,0,0,1-.74984,3.88318,9.21485,9.21485,0,0,1-2.07609,3.05545,9.33279,9.33279,0,0,1-3.13334,1.99923,10.95217,10.95217,0,0,1-7.76584,0,9.12839,9.12839,0,0,1-3.11413-1.99923,9.37184,9.37184,0,0,1-2.05687-3.05545,9.85391,9.85391,0,0,1-.74932-3.88318,9.72173,9.72173,0,0,1,.74932-3.86449,9.10513,9.10513,0,0,1,5.171-4.99755,10.95217,10.95217,0,0,1,7.76584,0,9.518,9.518,0,0,1,3.13334,1.98053,9.06456,9.06456,0,0,1,2.07609,3.017A9.71285,9.71285,0,0,1,268.77839,172.55936Zm-3.7679,0a7.739,7.739,0,0,0-.40348-2.49878,6.33125,6.33125,0,0,0-1.17254-2.09581,5.65675,5.65675,0,0,0-1.90316-1.44153,6.52823,6.52823,0,0,0-5.19021,0,5.6444,5.6444,0,0,0-1.90265,1.44153,6.32207,6.32207,0,0,0-1.17254,2.09581,7.9296,7.9296,0,0,0,0,4.99756,6.53864,6.53864,0,0,0,1.17254,2.11451,5.52627,5.52627,0,0,0,1.90265,1.46126,6.52823,6.52823,0,0,0,5.19021,0,5.53806,5.53806,0,0,0,1.90316-1.46126,6.54836,6.54836,0,0,0,1.17254-2.11451A7.739,7.739,0,0,0,265.01049,172.55936Z"/>
        <path class="cls-42" d="M286.4625,178.71076h-.11528a5.33134,5.33134,0,0,1-.942,1.36467,6.82843,6.82843,0,0,1-1.36519,1.11438,6.65808,6.65808,0,0,1-1.71051.74984,6.93056,6.93056,0,0,1-1.90316.269,7.435,7.435,0,0,1-3.05649-.5764,5.63313,5.63313,0,0,1-2.11451-1.59523,6.80679,6.80679,0,0,1-1.23018-2.36481,9.98675,9.98675,0,0,1-.40348-2.883v-9.61188a2.36192,2.36192,0,0,1,.19214-1.01883,1.58725,1.58725,0,0,1,.48033-.61483,1.73265,1.73265,0,0,1,.59614-.28872,1.92321,1.92321,0,0,1,1.07646,0,1.73489,1.73489,0,0,1,.59562.28872,1.593,1.593,0,0,1,.48085.61483,2.37741,2.37741,0,0,1,.19214,1.01883v8.41961a12.39023,12.39023,0,0,0,.17292,2.11452,5.08751,5.08751,0,0,0,.63456,1.76867,3.44492,3.44492,0,0,0,1.2686,1.23069,4.15239,4.15239,0,0,0,2.07609.46112,4.37253,4.37253,0,0,0,3.5176-1.63365,6.58834,6.58834,0,0,0,1.36467-4.364v-7.99692a2.36168,2.36168,0,0,1,.19266-1.01883,1.58725,1.58725,0,0,1,.48033-.61483,1.72828,1.72828,0,0,1,.59614-.28872,1.92325,1.92325,0,0,1,1.07647,0,1.73493,1.73493,0,0,1,.59561.28872,1.59787,1.59787,0,0,1,.48085.61483,2.37741,2.37741,0,0,1,.19214,1.01883v14.91686a2.24828,2.24828,0,0,1-.19214,1.00013,1.5322,1.5322,0,0,1-.46164.5764,1.74408,1.74408,0,0,1-.55718.269,1.95542,1.95542,0,0,1-.48086.07685,2.05015,2.05015,0,0,1-.51876-.07685,1.74137,1.74137,0,0,1-.55771-.269,1.51667,1.51667,0,0,1-.46112-.5764,2.23411,2.23411,0,0,1-.19213-1.00013Z"/>
        <path class="cls-43" d="M314.258,180.09413a2.2408,2.2408,0,0,1-.19265,1.00013,1.52647,1.52647,0,0,1-.46112.5764,1.71647,1.71647,0,0,1-.57641.269,2.19045,2.19045,0,0,1-.50006.07685,2.05015,2.05015,0,0,1-.51876-.07685,1.96953,1.96953,0,0,1-.57693-.269,1.44268,1.44268,0,0,1-.48033-.5764,2.23367,2.23367,0,0,1-.19265-1.00013V178.826h-.07686a6.71973,6.71973,0,0,1-2.8254,2.51748,8.49273,8.49273,0,0,1-3.74869.86512,9.28154,9.28154,0,0,1-3.80581-.74984,8.50675,8.50675,0,0,1-2.88357-2.05636,9.28843,9.28843,0,0,1-1.84552-3.07518,10.78384,10.78384,0,0,1-.65326-3.7679,10.624,10.624,0,0,1,.65326-3.74817,9.15908,9.15908,0,0,1,1.86474-3.05648,8.49675,8.49675,0,0,1,2.90278-2.03766,9.30447,9.30447,0,0,1,3.72895-.73115,7.72038,7.72038,0,0,1,3.88318.942,8.038,8.038,0,0,1,2.61406,2.288h.07686V154.33572a2.36986,2.36986,0,0,1,.19213-1.01883,1.59315,1.59315,0,0,1,.48085-.61483,1.73067,1.73067,0,0,1,.59562-.28872,1.92325,1.92325,0,0,1,1.07647,0,1.73288,1.73288,0,0,1,.59613.28872,1.59216,1.59216,0,0,1,.48034.61483,2.36946,2.36946,0,0,1,.19265,1.01883Zm-15.57063-7.53477a7.95977,7.95977,0,0,0,.38478,2.46035,6.253,6.253,0,0,0,1.15333,2.11452,6.04061,6.04061,0,0,0,7.016,1.49968,6.05471,6.05471,0,0,0,1.94159-1.44256,6.50206,6.50206,0,0,0,1.24939-2.09478,7.27759,7.27759,0,0,0,0-4.99756,6.74421,6.74421,0,0,0-1.24939-2.11451,5.92975,5.92975,0,0,0-1.94159-1.46126,5.80526,5.80526,0,0,0-2.518-.538,5.95976,5.95976,0,0,0-2.61458.538,5.56026,5.56026,0,0,0-1.88343,1.46126,6.25293,6.25293,0,0,0-1.15333,2.11451A7.95492,7.95492,0,0,0,298.68741,172.55936Z"/>
      </g>
    </g>
  </g>
</svg>
