<svg xmlns="http://www.w3.org/2000/svg" xmlns:xlink="http://www.w3.org/1999/xlink" width="386.68058" height="298.61869" viewBox="0 0 386.68058 298.61869">
  <defs>
    <style>
      .cls-1 {
        fill: none;
      }

      .cls-2 {
        fill: url(#Dégradé_sans_nom_60);
      }

      .cls-3 {
        fill: url(#Dégradé_sans_nom_60-2);
      }

      .cls-4 {
        clip-path: url(#clip-path);
      }

      .cls-5 {
        fill: url(#Dégradé_sans_nom_60-3);
      }

      .cls-6 {
        fill: url(#Dégradé_sans_nom_60-4);
      }

      .cls-7 {
        clip-path: url(#clip-path-2);
      }

      .cls-8 {
        fill: url(#Dégradé_sans_nom_60-6);
      }

      .cls-9 {
        clip-path: url(#clip-path-3);
      }

      .cls-10 {
        fill: url(#Dégradé_sans_nom_60-8);
      }

      .cls-11 {
        fill: #fff;
      }

      .cls-11, .cls-12, .cls-13, .cls-14, .cls-15, .cls-16, .cls-17, .cls-18 {
        fill-rule: evenodd;
      }

      .cls-12 {
        fill: url(#Nouvelle_nuance_de_dégradé_4);
      }

      .cls-13 {
        fill: url(#Nouvelle_nuance_de_dégradé_4-2);
      }

      .cls-14 {
        fill: url(#Nouvelle_nuance_de_dégradé_4-3);
      }

      .cls-15 {
        fill: url(#Nouvelle_nuance_de_dégradé_4-4);
      }

      .cls-16 {
        fill: url(#Nouvelle_nuance_de_dégradé_4-5);
      }

      .cls-17 {
        fill: url(#Nouvelle_nuance_de_dégradé_4-6);
      }

      .cls-18 {
        fill: url(#Nouvelle_nuance_de_dégradé_4-7);
      }
    </style>
    <linearGradient id="Dégradé_sans_nom_60" data-name="Dégradé sans nom 60" x1="295.95575" y1="112.43701" x2="96.59319" y2="172.17865" gradientUnits="userSpaceOnUse">
      <stop offset="0" stop-color="#ff0037"/>
      <stop offset="0.9195" stop-color="#0098ff"/>
      <stop offset="1" stop-color="#0098ff"/>
    </linearGradient>
    <linearGradient id="Dégradé_sans_nom_60-2" x1="295.95555" y1="112.43635" x2="96.59299" y2="172.17799" xlink:href="#Dégradé_sans_nom_60"/>
    <clipPath id="clip-path">
      <rect class="cls-1" x="62.33188" y="18.53453" width="263.03648" height="165.57859"/>
    </clipPath>
    <linearGradient id="Dégradé_sans_nom_60-3" x1="277.48076" y1="50.78452" x2="78.1182" y2="110.52616" xlink:href="#Dégradé_sans_nom_60"/>
    <linearGradient id="Dégradé_sans_nom_60-4" x1="284.8746" y1="75.45835" x2="85.51204" y2="135.2" gradientTransform="translate(124.29769 -56.69511) rotate(45)" xlink:href="#Dégradé_sans_nom_60"/>
    <clipPath id="clip-path-2">
      <path class="cls-2" d="M247.85774,73.53971a88.20481,88.20481,0,1,0,33.30349,58.72411,87.92733,87.92733,0,0,0-33.30349-58.72411m21.111,128.30934a95.53644,95.53644,0,1,1,19.47311-70.48624A95.24461,95.24461,0,0,1,268.9687,201.84905Z"/>
    </clipPath>
    <linearGradient id="Dégradé_sans_nom_60-6" x1="295.95533" y1="112.43562" x2="96.59277" y2="172.17726" gradientTransform="translate(308.59665 -68.4371) rotate(82.05766)" xlink:href="#Dégradé_sans_nom_60"/>
    <clipPath id="clip-path-3">
      <path class="cls-3" d="M154.313,107.87093c.09942-6.61555.45218-13.00875,1.03415-19.122-8.10064,1.90418-15.80661,4.10717-23.02719,6.558-.61577,7.59863-.875,15.61135-.74359,23.93338,5.71247-2.03145,11.7451-3.9098,18.05018-5.60528a5.97323,5.97323,0,0,1,4.68645-5.76409m-20.53238,42.63985c4.08758,33.01532,13.16782,62.20825,24.54294,82.71877,11.16553,20.12912,24.43867,31.79346,37.16936,30.21837a20.64372,20.64372,0,0,0,9.90133-4.16969c-8.51473-5.08923-16.71963-14.74875-23.96459-27.81269-11.55077-20.82486-20.76259-50.395-24.89463-83.77139-1.19213-9.63088-1.89559-19.05533-2.14711-28.14581a5.99129,5.99129,0,0,1-4.07524-3.06371c-6.54158,1.76-12.78307,3.71763-18.67082,5.83962C131.88485,131.4176,132.58609,140.858,133.78063,150.51078Zm26.46723-90.13123c3.84263-14.4347,9.44391-25.8053,16.45822-32.81732a20.64459,20.64459,0,0,0-10.62051-1.62669c-12.72828,1.57682-22.75531,16.12411-28.67614,38.36791a173.455,173.455,0,0,0-4.80783,27.82016c7.24817-2.41578,14.96857-4.58564,23.062-6.45833A172.45554,172.45554,0,0,1,160.24786,60.37955Zm.60854,50.49572c8.98447-2.007,18.417-3.65081,28.1759-4.859,33.37649-4.132,64.29972-2.41042,87.31322,3.71262,14.43523,3.83991,25.80687,9.44273,32.81745,16.45825a20.6746,20.6746,0,0,0,1.628-10.62034c-1.57784-12.73109-16.125-22.7581-38.37052-28.6765-22.666-6.03129-53.1908-7.71619-86.20592-3.63-9.65436,1.19572-18.98071,2.81768-27.8588,4.799-.63275,6.34181-1.0113,12.997-1.11312,19.90192A6.00388,6.00388,0,0,1,160.8564,110.87527Zm-57.36087-3.07064c-20.13157,11.16394-31.79307,24.43593-30.218,37.16663a20.64376,20.64376,0,0,0,4.16933,9.90393c5.089-8.51336,14.74873-16.71949,27.81286-23.96583a172.364,172.364,0,0,1,23.40282-10.61c-.15756-8.3079.06388-16.32323.63925-23.94247A173.29211,173.29211,0,0,0,103.49553,107.80463Zm128.186-49.588q-1.35374-2.70426-2.76071-5.24266C217.75527,32.84486,204.48472,21.18215,191.754,22.75723a20.65871,20.65871,0,0,0-9.90375,4.1681c8.17709,4.88762,16.06663,13.99112,23.0983,26.27348q-1.79242-.20133-3.603-.36987c-6.7808-11.40071-14.25337-19.70653-21.85873-23.91568-6.95372,6.50034-12.55349,17.7235-16.40912,32.21326a167.92483,167.92483,0,0,0-4.39035,23.85676c8.68056-1.90592,17.77153-3.47134,27.1666-4.634,33.37655-4.13341,64.29992-2.4118,87.31343,3.71125,23.434,6.23592,38.79763,17.10962,40.53478,31.14567a23.882,23.882,0,0,1-2.40121,13.32743,23.8871,23.8871,0,0,1,5.57974,12.33839c1.737,14.03742-10.51114,28.329-31.715,40.091q-5.26783,2.9204-11.25331,5.62691,1.18933-2.14629,2.255-4.27873,3.96384-1.90563,7.5813-3.9109c20.13155-11.16392,31.79582-24.43567,30.218-37.16676a20.6277,20.6277,0,0,0-4.16677-9.90216c-4.65445,7.787-13.136,15.315-24.54372,22.088q.21691-1.81674.33171-3.62053c10.53039-6.504,18.22671-13.60784,22.22307-20.83371-6.49928-6.95231-17.72231-12.55206-32.21239-16.40635-22.666-6.03128-53.1932-7.71792-86.20561-3.63121-9.64339,1.19446-18.95862,2.81389-27.82817,4.79234a5.9708,5.9708,0,0,1-4.24909,5.69789c.2522,9.00919.9499,18.35845,2.13337,27.91486,4.08759,33.01518,13.16784,62.20812,24.54295,82.71863,7.2733,13.11384,15.44129,22.63022,23.768,27.24063,6.09077-5.69283,11.14305-15.01189,14.89278-26.97531q1.72515-.5681,3.42145-1.2024c-3.79035,12.87615-9.06074,23.05878-15.536,29.52713a20.64725,20.64725,0,0,0,10.62049,1.628c12.731-1.57771,22.758-16.125,28.67636-38.37055.65424-2.45529,1.25706-5.01007,1.80626-7.64518q1.82223-1.49736,3.59241-3.10748c-.74187,4.01717-1.60022,7.85827-2.56885,11.49963-6.23591,23.434-17.10827,38.798-31.14567,40.53478a23.88156,23.88156,0,0,1-13.3273-2.40119,23.868,23.868,0,0,1-12.33853,5.57986c-14.03778,1.73944-28.3289-10.51126-40.08962-31.71492-11.55038-20.82761-20.76238-50.39655-24.89444-83.77277-1.16287-9.39384-1.86262-18.59281-2.13227-27.476A168.02085,168.02085,0,0,0,106.674,133.4717c-13.11383,7.2733-22.63264,15.43955-27.24081,23.76938,5.64871,6.03853,14.85863,11.05666,26.67714,14.79695q.59589,1.72905,1.2923,3.45572c-12.77609-3.78858-22.88331-9.03626-29.31869-15.47564A20.64688,20.64688,0,0,0,76.456,170.63845c1.57491,12.73194,16.12481,22.75934,38.3681,28.67478q4.03157,1.07453,8.37961,1.96013,1.4663,1.78134,3.03859,3.56108c-4.25739-.76725-8.3229-1.66771-12.16554-2.68877-23.43136-6.23557-38.795-17.11067-40.53214-31.14545a23.90284,23.90284,0,0,1,2.39857-13.32766,23.89167,23.89167,0,0,1-5.57707-12.33941c-1.737-14.036,10.50852-28.32928,31.71511-40.091a177.98752,177.98752,0,0,1,27.485-12.08183,177.92909,177.92909,0,0,1,5.016-29.6035c6.23312-23.433,17.10822-38.79656,31.14286-40.53377a23.8812,23.8812,0,0,1,13.32745,2.40121,23.894,23.894,0,0,1,12.34114-5.57949c14.03466-1.73722,28.3263,10.51075,40.08961,31.71492q2.04582,3.6867,3.98484,7.73113Q233.587,58.73382,231.68151,58.21664Z"/>
    </clipPath>
    <linearGradient id="Dégradé_sans_nom_60-8" x1="295.95602" y1="112.43792" x2="96.59346" y2="172.17956" gradientTransform="translate(308.59976 -68.4363) rotate(82.05766)" xlink:href="#Dégradé_sans_nom_60"/>
    <linearGradient id="Nouvelle_nuance_de_dégradé_4" data-name="Nouvelle nuance de dégradé 4" x1="30.58316" y1="263.0374" x2="369.77098" y2="295.61287" gradientUnits="userSpaceOnUse">
      <stop offset="0" stop-color="#0098ff"/>
      <stop offset="0.0805" stop-color="#0098ff"/>
      <stop offset="1" stop-color="#ff0037"/>
    </linearGradient>
    <linearGradient id="Nouvelle_nuance_de_dégradé_4-2" x1="33.00437" y1="237.82688" x2="372.19218" y2="270.40235" xlink:href="#Nouvelle_nuance_de_dégradé_4"/>
    <linearGradient id="Nouvelle_nuance_de_dégradé_4-3" x1="32.07961" y1="247.45582" x2="371.26743" y2="280.03128" xlink:href="#Nouvelle_nuance_de_dégradé_4"/>
    <linearGradient id="Nouvelle_nuance_de_dégradé_4-4" x1="30.12806" y1="267.776" x2="369.31588" y2="300.35146" xlink:href="#Nouvelle_nuance_de_dégradé_4"/>
    <linearGradient id="Nouvelle_nuance_de_dégradé_4-5" x1="32.50895" y1="242.98534" x2="371.69677" y2="275.56081" xlink:href="#Nouvelle_nuance_de_dégradé_4"/>
    <linearGradient id="Nouvelle_nuance_de_dégradé_4-6" x1="31.63338" y1="252.10212" x2="370.8212" y2="284.67759" xlink:href="#Nouvelle_nuance_de_dégradé_4"/>
    <linearGradient id="Nouvelle_nuance_de_dégradé_4-7" x1="31.08922" y1="257.76807" x2="370.27704" y2="290.34353" xlink:href="#Nouvelle_nuance_de_dégradé_4"/>
  </defs>
  <title>Logo-1c</title>
  <g id="borrow_money" data-name="borrow money">
    <rect width="386.68058" height="298.61869"/>
    <g>
      <g class="cls-4">
        <g>
          <circle class="cls-5" cx="130.9181" cy="94.70397" r="3.85971"/>
          <circle class="cls-6" cx="130.5859" cy="121.69303" r="4.6428" transform="translate(-47.80224 127.98124) rotate(-45)"/>
        </g>
        <g>
          <g>
            <path class="cls-2" d="M247.85774,73.53971a88.20481,88.20481,0,1,0,33.30349,58.72411,87.92733,87.92733,0,0,0-33.30349-58.72411m21.111,128.30934a95.53644,95.53644,0,1,1,19.47311-70.48624A95.24461,95.24461,0,0,1,268.9687,201.84905Z"/>
            <g class="cls-7">
              <rect class="cls-8" x="94.50904" y="43.98707" width="198.22648" height="198.22802" transform="translate(25.13985 315.09287) rotate(-82.05766)"/>
            </g>
          </g>
          <g>
            <path class="cls-3" d="M154.313,107.87093c.09942-6.61555.45218-13.00875,1.03415-19.122-8.10064,1.90418-15.80661,4.10717-23.02719,6.558-.61577,7.59863-.875,15.61135-.74359,23.93338,5.71247-2.03145,11.7451-3.9098,18.05018-5.60528a5.97323,5.97323,0,0,1,4.68645-5.76409m-20.53238,42.63985c4.08758,33.01532,13.16782,62.20825,24.54294,82.71877,11.16553,20.12912,24.43867,31.79346,37.16936,30.21837a20.64372,20.64372,0,0,0,9.90133-4.16969c-8.51473-5.08923-16.71963-14.74875-23.96459-27.81269-11.55077-20.82486-20.76259-50.395-24.89463-83.77139-1.19213-9.63088-1.89559-19.05533-2.14711-28.14581a5.99129,5.99129,0,0,1-4.07524-3.06371c-6.54158,1.76-12.78307,3.71763-18.67082,5.83962C131.88485,131.4176,132.58609,140.858,133.78063,150.51078Zm26.46723-90.13123c3.84263-14.4347,9.44391-25.8053,16.45822-32.81732a20.64459,20.64459,0,0,0-10.62051-1.62669c-12.72828,1.57682-22.75531,16.12411-28.67614,38.36791a173.455,173.455,0,0,0-4.80783,27.82016c7.24817-2.41578,14.96857-4.58564,23.062-6.45833A172.45554,172.45554,0,0,1,160.24786,60.37955Zm.60854,50.49572c8.98447-2.007,18.417-3.65081,28.1759-4.859,33.37649-4.132,64.29972-2.41042,87.31322,3.71262,14.43523,3.83991,25.80687,9.44273,32.81745,16.45825a20.6746,20.6746,0,0,0,1.628-10.62034c-1.57784-12.73109-16.125-22.7581-38.37052-28.6765-22.666-6.03129-53.1908-7.71619-86.20592-3.63-9.65436,1.19572-18.98071,2.81768-27.8588,4.799-.63275,6.34181-1.0113,12.997-1.11312,19.90192A6.00388,6.00388,0,0,1,160.8564,110.87527Zm-57.36087-3.07064c-20.13157,11.16394-31.79307,24.43593-30.218,37.16663a20.64376,20.64376,0,0,0,4.16933,9.90393c5.089-8.51336,14.74873-16.71949,27.81286-23.96583a172.364,172.364,0,0,1,23.40282-10.61c-.15756-8.3079.06388-16.32323.63925-23.94247A173.29211,173.29211,0,0,0,103.49553,107.80463Zm128.186-49.588q-1.35374-2.70426-2.76071-5.24266C217.75527,32.84486,204.48472,21.18215,191.754,22.75723a20.65871,20.65871,0,0,0-9.90375,4.1681c8.17709,4.88762,16.06663,13.99112,23.0983,26.27348q-1.79242-.20133-3.603-.36987c-6.7808-11.40071-14.25337-19.70653-21.85873-23.91568-6.95372,6.50034-12.55349,17.7235-16.40912,32.21326a167.92483,167.92483,0,0,0-4.39035,23.85676c8.68056-1.90592,17.77153-3.47134,27.1666-4.634,33.37655-4.13341,64.29992-2.4118,87.31343,3.71125,23.434,6.23592,38.79763,17.10962,40.53478,31.14567a23.882,23.882,0,0,1-2.40121,13.32743,23.8871,23.8871,0,0,1,5.57974,12.33839c1.737,14.03742-10.51114,28.329-31.715,40.091q-5.26783,2.9204-11.25331,5.62691,1.18933-2.14629,2.255-4.27873,3.96384-1.90563,7.5813-3.9109c20.13155-11.16392,31.79582-24.43567,30.218-37.16676a20.6277,20.6277,0,0,0-4.16677-9.90216c-4.65445,7.787-13.136,15.315-24.54372,22.088q.21691-1.81674.33171-3.62053c10.53039-6.504,18.22671-13.60784,22.22307-20.83371-6.49928-6.95231-17.72231-12.55206-32.21239-16.40635-22.666-6.03128-53.1932-7.71792-86.20561-3.63121-9.64339,1.19446-18.95862,2.81389-27.82817,4.79234a5.9708,5.9708,0,0,1-4.24909,5.69789c.2522,9.00919.9499,18.35845,2.13337,27.91486,4.08759,33.01518,13.16784,62.20812,24.54295,82.71863,7.2733,13.11384,15.44129,22.63022,23.768,27.24063,6.09077-5.69283,11.14305-15.01189,14.89278-26.97531q1.72515-.5681,3.42145-1.2024c-3.79035,12.87615-9.06074,23.05878-15.536,29.52713a20.64725,20.64725,0,0,0,10.62049,1.628c12.731-1.57771,22.758-16.125,28.67636-38.37055.65424-2.45529,1.25706-5.01007,1.80626-7.64518q1.82223-1.49736,3.59241-3.10748c-.74187,4.01717-1.60022,7.85827-2.56885,11.49963-6.23591,23.434-17.10827,38.798-31.14567,40.53478a23.88156,23.88156,0,0,1-13.3273-2.40119,23.868,23.868,0,0,1-12.33853,5.57986c-14.03778,1.73944-28.3289-10.51126-40.08962-31.71492-11.55038-20.82761-20.76238-50.39655-24.89444-83.77277-1.16287-9.39384-1.86262-18.59281-2.13227-27.476A168.02085,168.02085,0,0,0,106.674,133.4717c-13.11383,7.2733-22.63264,15.43955-27.24081,23.76938,5.64871,6.03853,14.85863,11.05666,26.67714,14.79695q.59589,1.72905,1.2923,3.45572c-12.77609-3.78858-22.88331-9.03626-29.31869-15.47564A20.64688,20.64688,0,0,0,76.456,170.63845c1.57491,12.73194,16.12481,22.75934,38.3681,28.67478q4.03157,1.07453,8.37961,1.96013,1.4663,1.78134,3.03859,3.56108c-4.25739-.76725-8.3229-1.66771-12.16554-2.68877-23.43136-6.23557-38.795-17.11067-40.53214-31.14545a23.90284,23.90284,0,0,1,2.39857-13.32766,23.89167,23.89167,0,0,1-5.57707-12.33941c-1.737-14.036,10.50852-28.32928,31.71511-40.091a177.98752,177.98752,0,0,1,27.485-12.08183,177.92909,177.92909,0,0,1,5.016-29.6035c6.23312-23.433,17.10822-38.79656,31.14286-40.53377a23.8812,23.8812,0,0,1,13.32745,2.40121,23.894,23.894,0,0,1,12.34114-5.57949c14.03466-1.73722,28.3263,10.51075,40.08961,31.71492q2.04582,3.6867,3.98484,7.73113Q233.587,58.73382,231.68151,58.21664Z"/>
            <g class="cls-9">
              <rect class="cls-10" x="68.19553" y="17.67666" width="250.8557" height="250.8532" transform="translate(25.13863 315.09584) rotate(-82.05766)"/>
            </g>
          </g>
        </g>
      </g>
      <g>
        <polygon class="cls-11" points="274.701 199.058 270.544 199.058 270.544 226.287 274.701 226.287 274.701 199.058 274.701 199.058"/>
        <polygon class="cls-11" points="20.561 199.058 16.405 199.058 16.405 210.594 16.405 214.751 16.405 226.287 20.561 226.287 20.561 214.751 57.087 214.751 57.087 226.287 61.244 226.287 61.244 214.751 61.244 210.594 61.244 199.058 57.087 199.058 57.087 210.594 20.561 210.594 20.561 199.058 20.561 199.058"/>
        <polygon class="cls-11" points="196.777 222.131 237.459 222.131 237.459 226.287 196.777 226.287 192.621 226.287 192.621 222.131 192.621 199.058 196.777 199.058 196.777 222.131 196.777 222.131"/>
        <polygon class="cls-11" points="160.528 226.287 151.143 217.111 148.135 214.171 132.68 199.058 132.68 199.058 126.734 199.058 126.735 199.058 98.886 226.287 104.832 226.287 129.707 201.965 142.191 214.171 146.442 218.327 154.583 226.287 160.528 226.287 160.528 226.287"/>
        <polygon class="cls-11" points="370.276 226.287 360.891 217.111 357.883 214.171 342.427 199.058 342.428 199.058 336.482 199.058 336.483 199.058 308.634 226.287 314.579 226.287 339.455 201.965 351.938 214.171 356.189 218.327 364.33 226.287 370.276 226.287 370.276 226.287"/>
        <path class="cls-12" d="M66.2,266.52256H104.8498v3.58285H69.78288v6.36111H104.8498v3.58285H66.2V266.52256Zm0-9.94395H104.8498V260.161H66.2v-3.58241Z"/>
        <polygon class="cls-13" points="334.202 279.073 334.202 278.007 334.202 276.501 334.202 273.838 334.202 270.105 346.535 270.105 347.049 270.364 363.269 280.015 370.276 280.015 350.552 268.279 370.276 256.544 363.269 256.544 346.497 266.523 334.202 266.523 334.202 256.544 330.619 256.544 330.619 266.523 330.619 270.105 330.619 275.97 330.619 276.501 330.619 279.073 330.619 279.909 330.619 280.084 334.202 280.084 334.202 279.073 334.202 279.073"/>
        <path class="cls-14" d="M234.5901,260.161h29.345a2.60228,2.60228,0,0,1,2.59429,2.59469v11.11607a2.60232,2.60232,0,0,1-2.59429,2.59474h-29.345a2.60241,2.60241,0,0,1-2.59439-2.59474V262.75571a2.60209,2.60209,0,0,1,2.59439-2.59469Zm29.345,19.88835a6.19547,6.19547,0,0,0,6.177-6.17759V262.75571a6.195,6.195,0,0,0-6.177-6.1771h-29.345a6.19546,6.19546,0,0,0-6.17719,6.1771v11.11607a6.19556,6.19556,0,0,0,6.17719,6.17759Z"/>
        <polygon class="cls-15" points="19.988 261.056 51.472 279.738 51.997 280.049 55.055 280.049 55.055 277.698 55.055 270.105 55.055 266.523 55.055 256.579 51.472 256.579 51.472 266.523 51.472 270.105 51.472 275.572 19.988 256.89 19.463 256.579 16.405 256.579 16.405 258.93 16.405 266.523 16.405 270.105 16.405 280.049 19.988 280.049 19.988 270.105 19.988 266.523 19.988 261.056 19.988 261.056"/>
        <path class="cls-16" d="M278.60237,256.57861H313.553a6.7634,6.7634,0,0,1,0,13.5268h-7.60924l16.75848,9.944h-7.02058l-16.75838-9.944v-3.58285H313.553a3.18077,3.18077,0,0,0,0-6.36154h-31.368v19.88835h-3.5827V256.57861Z"/>
        <polygon class="cls-17" points="205.203 256.579 192.355 270.886 198.235 277.544 216.749 256.579 221.874 256.579 200.797 280.049 195.672 280.049 189.899 273.62 184.127 280.049 179.001 280.049 157.925 256.579 163.05 256.579 181.564 277.544 187.444 270.886 189.899 268.105 200.078 256.579 205.203 256.579 205.203 256.579"/>
        <polygon class="cls-18" points="116.388 260.161 130.339 260.161 130.339 280.049 133.922 280.049 133.922 260.161 151.455 260.161 151.455 256.579 133.922 256.579 130.339 256.579 116.388 256.579 112.806 256.579 112.806 260.161 116.388 260.161 116.388 260.161"/>
      </g>
    </g>
  </g>
</svg>
